<svg width="235" height="72" viewBox="0 0 235 72" fill="none" xmlns="http://www.w3.org/2000/svg">
<path d="M234.541 43.8772C234.541 43.8772 200.845 2.83247 146.753 0.191641C92.6528 -2.44919 52.8986 23.4593 0 0.937638C0 0.937638 33.5549 34.5 86.6998 33.2542C139.852 32.0009 169.05 12.2022 234.541 43.8772Z" fill="#A700AF"/>
<path d="M227.895 43.6001C227.895 43.6001 190.498 22.8689 140.501 34.1185C90.497 45.3756 74.4655 48.9489 51.1904 36.9384C51.1904 36.9384 80.7095 68.4195 129.602 51.6495C178.495 34.872 227.895 43.6001 227.895 43.6001Z" fill="#A700AF"/>
<path d="M220.039 47.9945C220.039 47.9945 198.197 39.3857 155.488 53.0375C112.78 66.6818 103.545 69.6956 82.3955 61.7731C82.3955 61.7731 104.074 79.5353 154.862 66.1223C170.341 61.0197 202.553 44.7196 220.039 47.9945Z" fill="#A700AF"/>
</svg>
